<svg xmlns="http://www.w3.org/2000/svg" viewBox="0 0 315 268.57"><defs><style>.cls-1{fill:#fff;}.cls-2{fill:#939393;}.cls-3{opacity:0.31;}.cls-4,.cls-5{fill:none;stroke:#a3a5a8;stroke-miterlimit:10;}.cls-4{stroke-width:0.54px;}.cls-6{fill:#c4c6c8;}.cls-7{fill:#a3a5a8;}</style></defs><title>Asset 1</title><g id="Layer_2" data-name="Layer 2"><g id="Layer_1-2" data-name="Layer 1"><path class="cls-1" d="M13.42,202.5c3.73,0,6.57.66,8.51,1.94a7.9,7.9,0,0,1,3.68,7.08c0,6.86-5.81,9.74-10.87,9.79a11.09,11.09,0,0,1-1.41-.1l-2.74-.71v6.43c0,4,.33,4.16,4.44,4.54v1.74H0v-1.74c3.54-.43,4-.57,4-4.54V208.88c0-4-.48-4.4-4-4.63V202.5Zm-2.83,16a6.08,6.08,0,0,0,2.5.47c2.17,0,5.72-1.28,5.72-7.51,0-5.3-2.88-7-6-7a2.85,2.85,0,0,0-1.84.47c-.33.28-.42.75-.42,1.46Z"/><path class="cls-1" d="M39,233.21v-1.74c3-.43,3-.95,2.32-3-.48-1.42-1.23-3.54-1.94-5.44H30.15c-.52,1.47-1.18,3.27-1.65,4.73-1,3,.14,3.36,3.87,3.69v1.74H20.7v-1.74c3-.38,3.74-.81,5.34-4.78l9.83-24.43,2.27-.42c3,8.22,6.24,16.63,9.31,24.52,1.75,4.4,2.17,4.73,5.24,5.11v1.74Zm-4.16-22.58c-1.37,3.4-2.69,6.57-3.87,10h7.51Z"/><path class="cls-1" d="M81,225.09a68.6,68.6,0,0,1-2.64,7.61,41,41,0,0,1-8.7,1.22c-12.71,0-17.95-8.17-17.95-15.69,0-9.78,7.46-16.39,18.8-16.39A50.17,50.17,0,0,1,79.44,203c.24,2.22.57,5.72.9,7.8l-1.89.33c-1-3.69-2.41-5.44-4.91-6.43a12,12,0,0,0-4.11-.66c-6.86,0-10.31,5.72-10.31,13.14,0,8.65,4.45,14.51,10.92,14.51,4,0,6.62-2.08,9.17-7.28Z"/><path class="cls-1" d="M82.66,233.21v-1.74c3.59-.33,4-.62,4-4.59v-18c0-4-.47-4.35-4-4.63V202.5h14.6v1.75c-3.54.33-4,.66-4,4.63v18c0,3.92.42,4.21,4,4.59v1.74Z"/><path class="cls-1" d="M120.8,210.34a12.68,12.68,0,0,0-2.08-4.44c-1-1-1.61-1.23-3.87-1.23H111.3c-1.61,0-1.79.1-1.79,1.7v10.3h5c2.79,0,3.17-.7,3.88-4h1.75v10.49h-1.8c-.52-3.21-1.23-4-3.83-4h-5v7.37c0,4.35.28,4.68,4.53,5v1.74H98.92v-1.74c3.59-.33,4-.62,4-5V209.11c0-4.2-.43-4.58-4-4.86V202.5h16c4.06,0,6.43-.05,7.18-.1,0,.81.29,4.87.52,7.66Z"/><path class="cls-1" d="M123.69,233.21v-1.74c3.59-.33,4-.62,4-4.59v-18c0-4-.47-4.35-4-4.63V202.5h14.6v1.75c-3.55.33-4,.66-4,4.63v18c0,3.92.43,4.21,4,4.59v1.74Z"/><path class="cls-1" d="M169.34,225.09a66.51,66.51,0,0,1-2.65,7.61,40.89,40.89,0,0,1-8.69,1.22c-12.72,0-18-8.17-18-15.69,0-9.78,7.46-16.39,18.81-16.39a50.32,50.32,0,0,1,8.93,1.13c.23,2.22.56,5.72.9,7.8l-1.9.33c-1-3.69-2.41-5.44-4.91-6.43a12,12,0,0,0-4.11-.66c-6.85,0-10.3,5.72-10.3,13.14,0,8.65,4.44,14.51,10.91,14.51,4,0,6.62-2.08,9.17-7.28Z"/><path class="cls-1" d="M203.46,233.21v-1.74c3.59-.38,3.83-.71,3.83-5l0-18.43c-3.4,8.13-7.13,17.11-10.54,25.14h-1.56c-3.07-7.7-6.42-16.49-9.83-24.76-.61,14.84-.61,17.77-.61,19.47.05,2.55,1,3.22,4.54,3.55v1.74H177.52v-1.74c2.69-.24,3.92-.76,4.3-3.59.19-1.42.38-4.12,1.46-19.71.14-2.27-.19-3.54-4.25-3.92V202.5h10.21l9.12,20.84,9.16-20.84h10v1.75c-3.78.38-4.21.75-4.11,4.53l.37,17.72c.05,4.26.24,4.45,4.07,5v1.74Z"/><path class="cls-1" d="M251.05,204.25c-3,.28-3.82,1.18-4,2.88a60.14,60.14,0,0,0-.24,6.33v6.19c0,4.07-.66,8.18-3.35,11-2.18,2.27-5.53,3.26-8.89,3.26-3.12,0-6.24-.66-8.46-2.45-2.74-2.08-4.06-5-4.06-10.26v-12c0-4.35-.43-4.68-4-5V202.5h14.6v1.75c-3.54.33-4,.66-4,5v12.57c0,5.29,2.6,8.79,7.66,8.79,5.62,0,8.08-4.16,8.08-11.25v-5.91c0-3.26-.14-5-.24-6.38-.18-2.17-1.51-2.64-4.82-2.83V202.5h11.72Z"/><path class="cls-1" d="M276.1,224.9c-.37,2-1.7,7-2.12,8.31H250.54v-1.74c4.16-.29,4.53-.62,4.53-4.59v-18c0-4-.47-4.35-4-4.63V202.5H265.8v1.75c-3.68.33-4.16.66-4.16,4.63v18.33c0,2.6.1,3.78,2.7,3.83.09.05,2.26.05,2.45.05,2.7,0,3.41-.57,4.54-1.84a19.73,19.73,0,0,0,3-4.92Z"/><path class="cls-1" d="M297.66,210.67a14.39,14.39,0,0,0-2-4.63c-.85-1-1.22-1.37-4-1.37h-3v22.21c0,4,.48,4.26,4.68,4.59v1.74H277.57v-1.74c4-.33,4.44-.62,4.44-4.59V204.67h-2.88c-2.65,0-3.4.43-4.3,1.56a18.31,18.31,0,0,0-1.94,4.49H271.1c.33-3.45.66-7.13.75-9.4h1.42c.71,1.08,1.28,1.18,2.69,1.18h18.91a3.14,3.14,0,0,0,2.74-1.18H299c0,2,.24,6.14.47,9.21Z"/><path class="cls-1" d="M300.4,233.21v-1.74c3.59-.33,4-.62,4-4.59v-18c0-4-.48-4.35-4-4.63V202.5H315v1.75c-3.54.33-4,.66-4,4.63v18c0,3.92.43,4.21,4,4.59v1.74Z"/><path class="cls-1" d="M87.65,268.26c-.2,0-.61,0-1,0-4.3-.21-5.56-1.12-6.57-2.54a59.73,59.73,0,0,1-3.49-6,1.92,1.92,0,0,0-2.07-1.11l-.68,0v4.95c0,2.74.34,3,2.88,3.28v1.26H66.35V266.8c2.57-.27,2.88-.54,2.88-3.28v-13c0-2.67-.34-3-2.88-3.25V246h9.82c3,0,4.74.34,6.13,1.29a5.15,5.15,0,0,1,2.27,4.5c0,3-2,4.61-4.23,5.49.51,1,1.83,3.22,2.84,4.78a27.56,27.56,0,0,0,2.58,3.52,4.14,4.14,0,0,0,2.13,1.49Zm-12.9-11.08a5,5,0,0,0,3.32-.88,4.8,4.8,0,0,0,1.59-4c0-3.59-2.07-4.88-4-4.88-.92,0-1.36.14-1.56.34s-.31.61-.31,1.29v8.09Z"/><path class="cls-1" d="M106,262.3c-.17.91-1.12,4.81-1.42,5.76H87v-1.22c3.08-.31,3.28-.48,3.28-3.32V250.58c0-2.88-.4-3.08-2.71-3.29V246h11c3.56,0,4.74,0,5.22-.07,0,.61.2,3.39.34,5.49l-1.32.17a8.55,8.55,0,0,0-1.46-3.15c-.61-.68-1-.88-2.78-.88h-2.2c-1.29,0-1.42.07-1.42,1.22v7.08h3.32c1.89,0,2.23-.51,2.74-2.92h1.32v7.56H101c-.54-2.51-.81-2.92-2.78-2.92H94.94v5.83c0,2.34.07,3.05,2.17,3.08h2.4c1.9,0,2.41-.23,3.15-1.15a14.74,14.74,0,0,0,2.07-3.39Z"/><path class="cls-1" d="M119.46,251.63c-.67-2.17-1.62-4.64-4.74-4.64a3.12,3.12,0,0,0-3.25,3.28c0,1.87,1.25,3,4.23,4.48,3.63,1.79,5.93,3.55,5.93,6.91,0,4-3.32,6.91-8.16,6.91a19.7,19.7,0,0,1-5.69-1.05c-.21-.78-.78-4.31-1-5.9l1.32-.3c.68,2.13,2.58,5.82,5.9,5.82a3.12,3.12,0,0,0,3.32-3.45c0-2-1.22-3.12-4.07-4.64-3.52-1.9-5.83-3.59-5.83-7.12s2.78-6.37,7.86-6.37a25.28,25.28,0,0,1,4.85.61c.13,1.26.37,3,.64,5.15Z"/><path class="cls-1" d="M134.54,245.56a11,11,0,0,1,11.38,11.25c0,7.22-5.15,11.76-11.55,11.76a11.28,11.28,0,0,1-11.69-11.49C122.68,251.29,126.81,245.56,134.54,245.56Zm-.51,1.5c-3.46,0-6,3.38-6,9.38,0,5.72,2.27,10.64,6.85,10.64,3.21,0,5.72-3.12,5.72-9.32C140.6,251.05,138,247.06,134,247.06Z"/><path class="cls-1" d="M170.51,247.29c-2.16.21-2.74.85-2.88,2.07a43.51,43.51,0,0,0-.17,4.54v4.44c0,2.91-.47,5.86-2.4,7.89a8.8,8.8,0,0,1-6.37,2.34,9.63,9.63,0,0,1-6.06-1.77c-2-1.49-2.92-3.55-2.92-7.35v-8.57c0-3.11-.3-3.35-2.88-3.59V246H157.3v1.25c-2.54.24-2.84.48-2.84,3.59v9c0,3.8,1.86,6.3,5.48,6.3,4,0,5.8-3,5.8-8.06V253.9c0-2.34-.1-3.56-.17-4.57-.14-1.56-1.09-1.9-3.46-2V246h8.4Z"/><path class="cls-1" d="M191.82,268.26c-.2,0-.61,0-1,0-4.31-.21-5.56-1.12-6.58-2.54a63.85,63.85,0,0,1-3.49-6,1.9,1.9,0,0,0-2.06-1.11l-.68,0v4.95c0,2.74.34,3,2.88,3.28v1.26H170.51V266.8c2.58-.27,2.88-.54,2.88-3.28v-13c0-2.67-.34-3-2.88-3.25V246h9.83c3,0,4.74.34,6.13,1.29a5.17,5.17,0,0,1,2.27,4.5c0,3-2,4.61-4.24,5.49.51,1,1.83,3.22,2.85,4.78a27.77,27.77,0,0,0,2.57,3.52,4.16,4.16,0,0,0,2.14,1.49Zm-12.91-11.08a4.93,4.93,0,0,0,3.32-.88,4.81,4.81,0,0,0,1.6-4c0-3.59-2.07-4.88-4-4.88-.91,0-1.35.14-1.55.34s-.31.61-.31,1.29v8.09Z"/><path class="cls-1" d="M212.42,262.23a49.32,49.32,0,0,1-1.9,5.45,28.5,28.5,0,0,1-6.23.89c-9.12,0-12.88-5.86-12.88-11.25,0-7,5.36-11.76,13.49-11.76a35.94,35.94,0,0,1,6.4.82c.17,1.59.41,4.1.64,5.59l-1.35.23c-.71-2.64-1.73-3.89-3.53-4.6a8.48,8.48,0,0,0-2.94-.48c-4.91,0-7.39,4.1-7.39,9.42,0,6.2,3.19,10.4,7.83,10.4,2.84,0,4.74-1.49,6.57-5.22Z"/><path class="cls-1" d="M232.2,262.3c-.17.91-1.12,4.81-1.42,5.76H213.2v-1.22c3.08-.31,3.28-.48,3.28-3.32V250.58c0-2.88-.4-3.08-2.71-3.29V246h11c3.56,0,4.74,0,5.22-.07,0,.61.2,3.39.34,5.49l-1.32.17a8.55,8.55,0,0,0-1.46-3.15c-.61-.68-1.05-.88-2.78-.88h-2.2c-1.29,0-1.42.07-1.42,1.22v7.08h3.32c1.89,0,2.23-.51,2.74-2.92h1.32v7.56h-1.32c-.54-2.51-.81-2.92-2.78-2.92h-3.28v5.83c0,2.34.06,3.05,2.16,3.08h2.41c1.9,0,2.41-.23,3.15-1.15A15.1,15.1,0,0,0,231,262Z"/><path class="cls-1" d="M245.68,251.63c-.68-2.17-1.62-4.64-4.74-4.64a3.12,3.12,0,0,0-3.25,3.28c0,1.87,1.25,3,4.23,4.48,3.63,1.79,5.93,3.55,5.93,6.91,0,4-3.32,6.91-8.16,6.91a19.7,19.7,0,0,1-5.69-1.05c-.21-.78-.78-4.31-1-5.9l1.32-.3c.68,2.13,2.57,5.82,5.89,5.82a3.11,3.11,0,0,0,3.32-3.45c0-2-1.22-3.12-4.06-4.64-3.52-1.9-5.83-3.59-5.83-7.12s2.78-6.37,7.86-6.37a25.28,25.28,0,0,1,4.85.61c.13,1.26.37,3,.64,5.15Z"/><path class="cls-2" d="M154.39,45.39A67.56,67.56,0,1,0,222,113,67.56,67.56,0,0,0,154.39,45.39Zm0,126.57a59,59,0,1,1,59-59A59,59,0,0,1,154.39,172Z"/><path class="cls-3" d="M154.39,50.34A62.61,62.61,0,1,0,217,113,62.61,62.61,0,0,0,154.39,50.34Zm0,121.62a59,59,0,1,1,59-59A59,59,0,0,1,154.39,172Z"/><path class="cls-2" d="M153.77,82.51a29.31,29.31,0,1,0,29.3,29.31A29.3,29.3,0,0,0,153.77,82.51Zm0,54.1a24.8,24.8,0,1,1,24.8-24.79A24.79,24.79,0,0,1,153.77,136.61Z"/><line class="cls-4" x1="139.65" y1="86.65" x2="141.54" y2="89.94"/><line class="cls-4" x1="129" y1="96.82" x2="132.28" y2="98.72"/><line class="cls-4" x1="124.92" y1="111.11" x2="128.71" y2="111.12"/><line class="cls-4" x1="128.44" y1="125.7" x2="131.73" y2="123.81"/><line class="cls-4" x1="139.13" y1="136.87" x2="141.03" y2="133.59"/><line class="cls-4" x1="153.41" y1="140.73" x2="153.42" y2="136.94"/><line class="cls-4" x1="168.46" y1="136.83" x2="166.58" y2="133.54"/><line class="cls-4" x1="179.03" y1="125.86" x2="175.76" y2="123.96"/><line class="cls-4" x1="182.58" y1="111.24" x2="178.79" y2="111.23"/><line class="cls-4" x1="178.53" y1="96.93" x2="175.24" y2="98.82"/><line class="cls-4" x1="167.95" y1="86.68" x2="166.05" y2="89.95"/><line class="cls-5" x1="128.91" y1="67.51" x2="132.45" y2="73.63"/><line class="cls-5" x1="109.38" y1="87.04" x2="115.5" y2="90.58"/><line class="cls-5" x1="102.23" y1="113.73" x2="109.3" y2="113.73"/><line class="cls-5" x1="109.38" y1="140.41" x2="115.5" y2="136.88"/><line class="cls-5" x1="128.91" y1="159.95" x2="132.45" y2="153.82"/><line class="cls-5" x1="155.6" y1="167.1" x2="155.6" y2="160.03"/><line class="cls-5" x1="182.29" y1="159.95" x2="178.75" y2="153.82"/><line class="cls-5" x1="201.82" y1="140.41" x2="195.69" y2="136.88"/><line class="cls-5" x1="208.97" y1="113.73" x2="201.9" y2="113.73"/><line class="cls-5" x1="201.82" y1="87.04" x2="195.69" y2="90.58"/><line class="cls-5" x1="182.29" y1="67.51" x2="178.75" y2="73.63"/><line class="cls-5" x1="142.25" y1="62.41" x2="144.14" y2="69.23"/><line class="cls-5" x1="117.29" y1="75.78" x2="122.25" y2="80.82"/><line class="cls-5" x1="103.27" y1="99.58" x2="110.09" y2="101.47"/><line class="cls-5" x1="103.03" y1="127.21" x2="109.88" y2="125.44"/><line class="cls-5" x1="116.64" y1="151.26" x2="121.68" y2="146.3"/><line class="cls-5" x1="140.45" y1="165.27" x2="142.34" y2="158.46"/><line class="cls-5" x1="168.07" y1="165.51" x2="166.3" y2="158.66"/><line class="cls-5" x1="192.12" y1="151.91" x2="187.16" y2="146.86"/><line class="cls-5" x1="206.14" y1="128.1" x2="199.32" y2="126.21"/><line class="cls-5" x1="206.37" y1="100.47" x2="199.53" y2="102.24"/><line class="cls-5" x1="192.77" y1="76.43" x2="187.72" y2="81.39"/><line class="cls-5" x1="168.96" y1="62.41" x2="167.07" y2="69.23"/><path class="cls-1" d="M157,115.58a3.72,3.72,0,1,1,0-5.26A3.71,3.71,0,0,1,157,115.58Z"/><polygon class="cls-6" points="186.94 145.5 161.39 105.95 161.29 105.89 154.53 113.09 186.94 145.5"/><polygon class="cls-6" points="147.83 120.23 186.94 145.5 154.53 113.09 147.83 120.23"/><polygon class="cls-3" points="147.83 120.23 186.94 145.5 154.53 113.09 147.83 120.23"/><polygon class="cls-7" points="122.65 145.5 148.2 105.95 148.29 105.89 155.05 113.09 122.65 145.5"/><polygon class="cls-6" points="161.76 120.23 122.65 145.5 155.05 113.09 161.76 120.23"/><polygon class="cls-3" points="161.76 120.23 122.65 145.5 155.05 113.09 161.76 120.23"/><polygon class="cls-6" points="154.78 64.96 144.89 110.99 144.91 111.1 154.78 110.79 154.78 64.96"/><polygon class="cls-6" points="164.57 110.48 154.78 64.96 154.78 110.79 164.57 110.48"/><polygon class="cls-3" points="164.57 110.48 154.78 64.96 154.78 110.79 164.57 110.48"/><path class="cls-1" d="M150.67,116.67a5.26,5.26,0,1,1,7.44,0A5.27,5.27,0,0,1,150.67,116.67Z"/><path class="cls-2" d="M201.33,0a26.84,26.84,0,1,0,26.84,26.84A26.84,26.84,0,0,0,201.33,0Zm0,50.28a23.44,23.44,0,1,1,23.44-23.44A23.43,23.43,0,0,1,201.33,50.28Z"/><path class="cls-3" d="M201.33,2A24.87,24.87,0,1,0,226.2,26.84,24.87,24.87,0,0,0,201.33,2Zm0,48.35a23.48,23.48,0,1,1,23.48-23.48A23.48,23.48,0,0,1,201.33,50.32Z"/><rect class="cls-2" x="180.56" y="48.65" width="14.19" height="6.32" transform="translate(51.04 -86.89) rotate(30)"/></g></g></svg>